
<svg version="1.0" xmlns="http://www.w3.org/2000/svg"
 width="364.000000pt" height="354.000000pt" viewBox="0 0 364.000000 354.000000"
 preserveAspectRatio="xMidYMid meet">

<g transform="translate(0.000000,354.000000) scale(0.100000,-0.100000)"
fill="#000000" stroke="none">
<path d="M2595 3370 c3 -5 23 -10 43 -9 33 1 34 2 12 9 -36 12 -62 12 -55 0z"/>
<path d="M2680 3360 c0 -6 12 -10 28 -10 43 0 136 -28 148 -45 6 -8 21 -15 32
-15 21 0 82 -31 114 -57 9 -8 22 -13 30 -12 25 5 67 -23 79 -53 15 -36 5 -47
-21 -23 -11 10 -20 13 -20 7 0 -7 4 -12 9 -12 5 0 13 -9 16 -20 4 -11 28 -31
53 -45 27 -13 57 -39 70 -59 12 -20 27 -35 33 -33 6 1 13 -5 14 -14 1 -8 12
-35 24 -59 11 -24 21 -49 21 -55 0 -7 9 -22 20 -35 27 -31 43 -90 29 -107 -8
-9 -6 -17 6 -30 17 -16 17 -17 0 -23 -12 -4 -19 -20 -21 -50 -3 -24 -8 -46
-13 -50 -5 -3 -11 -14 -14 -25 -3 -15 -5 -13 -6 8 0 15 -10 45 -21 67 -11 22
-20 44 -20 51 0 15 -32 81 -47 97 -7 7 -10 19 -7 27 4 9 0 15 -10 15 -8 0 -20
9 -26 20 -6 10 -16 17 -23 14 -7 -2 -24 7 -37 21 -30 31 -40 32 -40 0 0 -30
-26 -46 -57 -34 -14 5 -23 5 -23 -1 0 -6 4 -10 8 -10 7 0 43 -70 48 -92 1 -5
2 -9 3 -10 1 -2 4 -23 6 -48 2 -25 15 -81 30 -125 21 -63 27 -105 31 -200 4
-109 3 -118 -10 -95 l-15 25 -1 -37 c0 -21 9 -52 20 -70 11 -18 20 -48 20 -67
0 -25 4 -32 15 -27 21 8 36 -26 26 -60 -27 -88 -109 -223 -138 -224 -5 -1 -37
-47 -72 -104 -64 -103 -89 -139 -147 -205 -47 -54 -114 -152 -114 -168 0 -17
-49 -85 -104 -143 -23 -25 -84 -92 -135 -150 -129 -145 -338 -350 -356 -350
-15 0 -75 -74 -75 -92 0 -6 -9 -23 -21 -40 -12 -16 -19 -31 -17 -33 10 -10 49
29 63 61 10 24 26 39 50 50 20 8 75 51 123 96 135 126 522 519 522 530 0 17
94 118 110 118 9 0 28 12 42 27 33 36 108 144 108 155 0 16 120 188 131 188
10 0 -10 -40 -71 -142 -12 -21 -17 -38 -11 -38 6 0 22 17 35 38 14 20 43 62
64 92 86 123 104 151 136 217 19 37 64 117 100 178 37 60 71 127 78 150 6 23
11 105 10 194 -1 130 -5 169 -27 255 -61 233 -193 435 -369 560 -98 69 -165
99 -291 130 -46 11 -125 15 -125 6z m470 -227 c0 -20 -16 -8 -23 17 -4 17 -3
19 9 9 8 -6 14 -18 14 -26z m25 -23 c3 -5 1 -10 -4 -10 -6 0 -11 5 -11 10 0 6
2 10 4 10 3 0 8 -4 11 -10z m45 -35 c7 -8 8 -15 2 -15 -5 0 -15 7 -22 15 -7 8
-8 15 -2 15 5 0 15 -7 22 -15z m120 -644 c13 -26 13 -80 -1 -120 -13 -37 -24
-40 -33 -8 -8 30 -8 132 1 140 11 12 22 8 33 -12z m-117 -601 c-3 -10 -11 -25
-19 -31 -17 -14 -18 -8 -2 26 13 30 28 34 21 5z"/>
<path d="M1172 3353 c-15 -6 46 -39 89 -48 16 -4 31 -11 35 -16 3 -5 21 -16
40 -24 19 -8 37 -21 40 -30 3 -8 11 -15 18 -15 6 0 40 -23 75 -52 36 -28 61
-46 57 -40 -4 7 -5 12 -2 12 8 0 50 -45 65 -70 12 -21 11 -25 -4 -36 -16 -12
-14 -17 21 -71 21 -32 42 -59 46 -61 5 -2 8 -9 8 -16 0 -6 14 -27 32 -46 27
-29 33 -32 36 -17 2 10 -6 34 -18 54 -11 19 -18 38 -16 41 3 3 8 -3 12 -12 3
-9 10 -14 14 -11 5 3 15 -1 23 -9 13 -13 17 -13 33 5 17 19 17 21 -28 62 -25
23 -72 75 -104 116 -60 76 -148 149 -219 183 -22 10 -47 22 -55 27 -8 5 -40
17 -70 27 -30 10 -68 25 -85 35 -16 9 -36 15 -43 12z m478 -385 c0 -6 -9 1
-20 15 -11 14 -20 29 -20 34 1 11 40 -37 40 -49z"/>
<path d="M2600 3321 c0 -31 -42 -44 -122 -36 l-67 6 2 -26 c2 -23 -4 -29 -38
-42 -52 -21 -53 -22 -31 -39 17 -12 22 -12 40 5 12 10 45 24 75 31 37 9 55 18
58 31 6 22 25 24 53 7 17 -11 22 -10 29 0 5 8 17 13 27 12 11 -1 30 -2 43 -1
23 1 23 2 8 19 -10 10 -17 24 -17 30 0 7 -6 12 -14 12 -8 0 -21 3 -30 6 -12 4
-16 0 -16 -15z"/>
<path d="M1150 3305 c0 -9 -11 -21 -25 -27 -21 -9 -35 -8 -78 10 -66 28 -75
27 -79 0 -2 -19 -11 -24 -47 -28 -39 -4 -42 -7 -28 -19 10 -7 17 -20 17 -27 0
-20 23 -17 54 7 21 16 34 19 64 14 21 -3 51 -1 66 5 23 8 34 7 53 -5 16 -11
34 -14 53 -10 l29 6 -17 34 c-19 38 -62 65 -62 40z"/>
<path d="M988 3003 c6 -2 18 -2 25 0 6 3 1 5 -13 5 -14 0 -19 -2 -12 -5z"/>
<path d="M2366 2991 c-3 -5 1 -14 8 -20 12 -10 13 -8 9 8 -6 23 -9 25 -17 12z"/>
<path d="M762 2886 c-32 -30 -70 -60 -85 -65 -16 -6 -25 -15 -22 -21 3 -5 1
-10 -5 -10 -20 0 -109 -102 -121 -139 -7 -20 -15 -38 -19 -41 -10 -8 -48 -91
-56 -123 -4 -16 -1 -33 6 -42 17 -20 24 -122 12 -173 -9 -39 -7 -50 19 -105
93 -198 270 -414 332 -405 14 2 21 9 19 19 -1 9 4 19 11 22 15 5 77 -20 90
-38 5 -5 6 -1 3 10 -15 58 -17 97 -7 128 11 33 10 47 -16 182 -3 17 -10 35
-15 42 -5 7 -7 16 -4 21 3 5 -6 19 -19 32 -43 40 -68 105 -61 156 3 24 10 52
15 61 5 10 22 59 36 108 15 50 31 103 36 119 14 46 11 68 -8 64 -24 -4 -43
-45 -43 -95 0 -23 -4 -45 -10 -48 -5 -3 -10 -14 -10 -24 0 -10 -7 -24 -15 -31
-8 -7 -15 -21 -15 -31 0 -10 -10 -25 -22 -34 -22 -15 -23 -14 -26 5 -2 12 0
26 5 33 5 7 10 29 12 50 3 39 44 142 62 152 5 4 18 23 28 43 10 20 33 52 50
69 41 44 40 61 -6 69 -56 10 -67 19 -67 55 -1 18 -7 34 -13 36 -7 3 -39 -20
-71 -51z m1 -148 c-3 -18 -9 -35 -13 -38 -4 -3 -12 -15 -19 -27 -15 -30 -31
-29 -31 1 0 24 23 56 40 56 4 0 10 9 13 20 9 33 17 23 10 -12z m-173 -113 c0
-8 -6 -29 -14 -47 -8 -18 -25 -59 -38 -90 -12 -32 -29 -58 -36 -58 -20 0 -7
51 34 138 33 68 54 91 54 57z"/>
<path d="M2061 2730 c-99 -106 -114 -134 -68 -128 18 2 21 -1 19 -21 -1 -14
-9 -32 -17 -41 -21 -23 -19 -30 10 -30 14 0 25 5 25 11 0 5 4 8 9 5 11 -7 125
105 163 160 15 21 39 51 53 66 37 40 31 47 -27 27 -57 -19 -76 -13 -59 19 13
24 14 42 3 42 -4 0 -54 -49 -111 -110z"/>
<path d="M257 2738 c-4 -13 -21 -39 -40 -59 -18 -19 -32 -41 -31 -47 1 -7 0
-8 -3 -2 -2 5 -9 8 -13 5 -5 -3 -7 20 -6 51 2 42 1 52 -7 38 -6 -10 -12 -97
-14 -194 -3 -166 -2 -181 26 -288 16 -65 39 -128 54 -150 14 -20 33 -59 42
-87 39 -116 128 -268 227 -385 108 -128 135 -160 185 -213 54 -56 83 -69 60
-24 -7 12 -34 55 -61 95 -27 40 -47 74 -44 77 3 4 84 -110 123 -174 21 -35
166 -209 217 -260 59 -61 165 -141 185 -141 7 0 13 -5 13 -11 0 -6 8 -8 18 -5
13 4 57 -33 168 -142 139 -136 224 -206 224 -182 0 6 9 10 20 10 11 0 20 7 20
15 0 20 -36 55 -57 55 -18 0 -206 187 -294 291 -57 68 -119 159 -152 225 -15
29 -32 58 -39 65 -7 8 -42 50 -77 94 -75 93 -106 125 -121 125 -6 0 -8 5 -5
10 3 6 1 10 -4 10 -6 0 -11 5 -11 11 0 19 -58 69 -81 69 -18 0 -20 3 -11 12
16 16 15 28 -2 28 -8 0 -17 10 -20 23 -3 12 -22 40 -42 62 -20 22 -48 56 -63
75 -14 19 -34 44 -44 55 -9 12 -49 84 -87 160 -39 77 -78 147 -86 156 -21 23
-44 103 -44 151 0 21 9 54 19 74 18 34 19 38 4 60 -16 25 -33 32 -33 14 0 -5
-4 -10 -9 -10 -5 0 -11 23 -15 50 -4 28 -10 50 -14 50 -11 0 -32 61 -32 92 0
31 -19 88 -30 88 -4 0 -10 -10 -13 -22z m8 -508 c8 -35 -3 -60 -16 -39 -12 19
-11 69 0 69 5 0 12 -13 16 -30z m287 -498 c48 -100 56 -125 29 -87 -44 61 -91
166 -74 164 4 0 25 -35 45 -77z m616 -737 c-7 -8 -48 35 -48 49 0 6 12 -2 27
-16 15 -15 24 -30 21 -33z"/>
<path d="M2972 2669 c2 -6 8 -10 13 -10 5 0 11 4 13 10 2 6 -4 11 -13 11 -9 0
-15 -5 -13 -11z"/>
<path d="M2992 2427 c-6 -7 -9 -22 -6 -33 2 -10 0 -32 -5 -49 l-9 -30 -1 31
c-1 17 -4 33 -7 37 -10 10 -64 -14 -64 -29 0 -8 -6 -14 -12 -14 -9 -1 -8 -5 3
-13 9 -7 14 -18 12 -25 -3 -7 10 -18 28 -26 30 -13 35 -12 47 5 7 10 19 16 27
13 15 -6 35 24 35 53 0 29 -20 93 -29 93 -5 0 -13 -6 -19 -13z"/>
<path d="M2824 2178 c-10 -46 -19 -88 -19 -95 0 -6 -4 -15 -8 -19 -4 -4 -7
-16 -7 -26 0 -10 -21 -41 -47 -68 -67 -70 -71 -75 -79 -107 -12 -50 -51 -127
-81 -158 -29 -32 -48 -59 -60 -85 -3 -8 -19 -30 -35 -48 -15 -18 -35 -48 -43
-67 -7 -19 -19 -35 -24 -35 -6 0 -11 -6 -11 -14 0 -7 -7 -19 -15 -26 -8 -7
-15 -19 -15 -27 0 -21 -50 -58 -73 -55 -11 2 -25 -6 -34 -17 -14 -21 -43 -29
-43 -11 0 5 9 14 20 20 11 6 18 15 15 20 -3 5 3 11 13 14 23 8 82 79 82 99 0
8 6 20 14 27 8 6 12 18 9 26 -7 18 -79 19 -86 2 -2 -7 -8 -9 -13 -5 -5 4 -4
11 2 15 17 12 55 97 44 100 -5 2 -22 -6 -36 -17 -15 -12 -33 -21 -40 -21 -8 0
-14 -4 -14 -9 0 -5 -8 -12 -17 -15 -16 -6 -37 -32 -112 -145 -13 -20 -27 -38
-31 -41 -17 -12 -40 -73 -35 -90 4 -14 2 -20 -8 -20 -10 0 -18 -14 -22 -39 -4
-22 -13 -45 -21 -52 -8 -6 -14 -16 -14 -22 0 -6 -10 -21 -22 -34 -39 -41 -74
-342 -44 -384 12 -18 15 -16 45 28 30 45 58 86 137 195 18 26 36 58 40 71 13
55 130 145 168 131 22 -8 20 -56 -2 -103 -23 -47 -128 -184 -176 -231 -32 -30
-66 -81 -66 -98 0 -3 8 3 18 14 9 11 50 56 90 101 39 45 72 86 72 93 0 6 5 8
10 5 6 -3 10 -2 10 3 0 5 10 20 23 34 56 63 74 86 101 133 16 28 46 66 66 87
20 20 49 60 64 90 16 29 37 62 46 73 10 11 21 30 25 43 3 12 11 22 16 22 5 0
9 7 9 16 0 9 16 48 36 88 20 39 44 86 53 104 9 19 30 50 48 70 17 20 30 39 28
42 -2 4 7 22 20 40 14 19 25 40 25 47 0 16 26 58 56 92 19 20 74 168 74 198 0
16 -31 74 -53 100 -38 43 -52 31 -73 -59z"/>
<path d="M3067 2135 c-4 -8 -13 -15 -22 -15 -8 0 -15 -7 -15 -15 0 -8 0 -16 0
-17 0 -2 -7 -25 -15 -52 -17 -55 -19 -103 -6 -108 5 -2 5 -25 0 -56 -6 -43
-19 -67 -62 -120 -29 -37 -60 -78 -69 -92 l-16 -26 44 20 c23 11 42 23 42 26
-1 3 13 37 31 75 18 39 37 79 41 90 18 40 70 231 72 264 3 35 -15 54 -25 26z"/>
<path d="M1509 1243 c-5 -39 8 -75 46 -125 27 -35 50 -79 60 -115 36 -128 54
-190 69 -228 l15 -40 16 38 c15 36 15 123 -1 198 -2 13 -7 44 -11 69 -3 25
-12 56 -19 70 -34 68 -170 171 -175 133z"/>
<path d="M1100 923 c0 -11 68 -78 73 -72 2 2 -14 21 -35 43 -21 21 -38 34 -38
29z"/>
<path d="M1193 819 c15 -20 197 -208 281 -288 20 -19 36 -29 36 -22 0 14 -285
308 -314 323 -18 10 -18 9 -3 -13z"/>
<path d="M1999 683 c-13 -16 -12 -17 4 -4 16 13 21 21 13 21 -2 0 -10 -8 -17
-17z"/>
<path d="M2314 678 l-19 -23 23 19 c21 18 27 26 19 26 -2 0 -12 -10 -23 -22z"/>
<path d="M1480 651 c0 -11 10 -27 22 -35 30 -21 45 -20 26 2 -8 9 -18 25 -21
35 -9 23 -27 22 -27 -2z"/>
<path d="M1560 584 c0 -15 89 -115 118 -130 17 -10 32 -22 32 -27 0 -5 15 -7
33 -5 41 4 46 38 6 48 -14 4 -57 33 -95 64 -61 49 -94 67 -94 50z"/>
<path d="M1669 331 c23 -27 41 -54 41 -60 0 -6 5 -11 11 -11 12 0 -16 51 -52
91 -43 49 -44 32 0 -20z"/>
<path d="M1870 220 c-14 -11 -20 -20 -14 -20 6 0 19 9 29 20 23 25 17 25 -15
0z"/>
<path d="M1808 193 c6 -2 18 -2 25 0 6 3 1 5 -13 5 -14 0 -19 -2 -12 -5z"/>
</g>
</svg>
